<?xml version="1.0" encoding="UTF-8"?>
<svg xmlns="http://www.w3.org/2000/svg" xmlns:xlink="http://www.w3.org/1999/xlink"
     width="10" height="10" viewBox="0 -5.0 10 10">
<defs>
</defs>
<path d="M1.0,-0.0 L0.0,1.1102230246251565e-16 L0.5,-0.8660254037844386 L1.5,-0.8660254037844386 L1.0,-0.0 Z" fill="blue" />
<path d="M0.9999999999999998,1.7320508075688772 L0.5,0.8660254037844384 L1.5000000000000002,0.8660254037844387 L2.0,1.7320508075688776 L0.9999999999999998,1.7320508075688772 Z" fill="blue" />
<path d="M1.5,0.8660254037844386 L0.5,0.8660254037844386 L1.0,-0.0 L2.0,-0.0 L1.5,0.8660254037844386 Z" fill="red" />
<path d="M1.4999999999999998,2.5980762113533156 L1.0,1.7320508075688767 L2.0,1.7320508075688772 L2.5,2.598076211353316 L1.4999999999999998,2.5980762113533156 Z" fill="blue" />
<path d="M1.9999999999999998,3.464101615137754 L1.5,2.598076211353315 L2.5,2.5980762113533156 L3.0,3.4641016151377544 L1.9999999999999998,3.464101615137754 Z" fill="blue" />
<path d="M2.5000000000000004,4.330127018922193 L2.0,3.4641016151377553 L2.9999999999999996,3.4641016151377544 L3.5,4.330127018922192 L2.5000000000000004,4.330127018922193 Z" fill="blue" />
<path d="M1.5000000000000002,-0.8660254037844387 L0.5,-0.8660254037844384 L0.9999999999999998,-1.7320508075688772 L2.0,-1.7320508075688776 L1.5000000000000002,-0.8660254037844387 Z" fill="blue" />
<path d="M2.4999999999999996,0.8660254037844387 L2.0,1.732050807568877 L1.5000000000000002,0.8660254037844387 L2.0,4.440892098500626e-16 L2.4999999999999996,0.8660254037844387 Z" fill="green" />
<path d="M2.9999999999999996,1.7320508075688772 L2.5,2.598076211353315 L2.0000000000000004,1.7320508075688772 L2.5,0.8660254037844388 L2.9999999999999996,1.7320508075688772 Z" fill="green" />
<path d="M3.5000000000000004,2.598076211353316 L3.0,3.4641016151377553 L2.4999999999999996,2.598076211353316 L3.0,1.7320508075688767 L3.5000000000000004,2.598076211353316 Z" fill="green" />
<path d="M3.5000000000000004,4.330127018922193 L3.0,3.4641016151377553 L3.9999999999999996,3.4641016151377544 L4.5,4.330127018922192 L3.5000000000000004,4.330127018922193 Z" fill="blue" />
<path d="M4.0,3.464101615137754 L3.0,3.464101615137754 L3.5,2.5980762113533156 L4.5,2.598076211353316 L4.0,3.464101615137754 Z" fill="red" />
<path d="M2.0,-1.7320508075688772 L1.0,-1.7320508075688767 L1.4999999999999998,-2.5980762113533156 L2.5,-2.598076211353316 L2.0,-1.7320508075688772 Z" fill="blue" />
<path d="M2.4999999999999996,-0.8660254037844387 L2.0,-4.440892098500626e-16 L1.5000000000000002,-0.8660254037844387 L2.0,-1.732050807568877 L2.4999999999999996,-0.8660254037844387 Z" fill="green" />
<path d="M2.5,0.8660254037844385 L2.0,-4.440892098500626e-16 L3.0,-1.1102230246251565e-16 L3.5,0.8660254037844388 L2.5,0.8660254037844385 Z" fill="blue" />
<path d="M3.0,1.7320508075688767 L2.5,0.8660254037844379 L3.5,0.8660254037844383 L4.0,1.7320508075688772 L3.0,1.7320508075688767 Z" fill="blue" />
<path d="M3.5,2.5980762113533156 L3.0,1.7320508075688776 L4.0,1.7320508075688772 L4.5,2.5980762113533156 L3.5,2.5980762113533156 Z" fill="blue" />
<path d="M5.0,3.4641016151377544 L4.5,4.330127018922193 L4.0,3.4641016151377544 L4.5,2.5980762113533156 L5.0,3.4641016151377544 Z" fill="green" />
<path d="M5.499999999999999,4.330127018922194 L4.5,4.330127018922191 L5.000000000000001,3.464101615137755 L6.0,3.464101615137756 L5.499999999999999,4.330127018922194 Z" fill="red" />
<path d="M2.5,-2.5980762113533156 L1.5,-2.598076211353315 L1.9999999999999998,-3.464101615137754 L3.0,-3.4641016151377544 L2.5,-2.5980762113533156 Z" fill="blue" />
<path d="M2.9999999999999996,-1.7320508075688772 L2.5,-0.8660254037844388 L2.0000000000000004,-1.7320508075688772 L2.5,-2.598076211353315 L2.9999999999999996,-1.7320508075688772 Z" fill="green" />
<path d="M3.4999999999999996,-0.8660254037844384 L3.0,-4.440892098500626e-16 L2.5000000000000004,-0.8660254037844384 L3.0,-1.7320508075688763 L3.4999999999999996,-0.8660254037844384 Z" fill="green" />
<path d="M3.5,0.8660254037844385 L3.0,-4.440892098500626e-16 L4.0,-1.1102230246251565e-16 L4.5,0.8660254037844388 L3.5,0.8660254037844385 Z" fill="blue" />
<path d="M4.0,1.7320508075688776 L3.5,0.8660254037844393 L4.5,0.8660254037844389 L5.0,1.7320508075688772 L4.0,1.7320508075688776 Z" fill="blue" />
<path d="M4.5,2.5980762113533156 L4.0,1.7320508075688776 L5.0,1.7320508075688772 L5.5,2.5980762113533156 L4.5,2.5980762113533156 Z" fill="blue" />
<path d="M5.0,3.464101615137754 L4.5,2.598076211353316 L5.5,2.5980762113533156 L6.0,3.464101615137754 L5.0,3.464101615137754 Z" fill="blue" />
<path d="M6.500000000000001,4.330127018922194 L5.5,4.3301270189221945 L5.999999999999999,3.464101615137755 L7.0,3.4641016151377535 L6.500000000000001,4.330127018922194 Z" fill="red" />
<path d="M2.9999999999999996,-3.4641016151377544 L2.0,-3.4641016151377553 L2.5000000000000004,-4.330127018922193 L3.5,-4.330127018922192 L2.9999999999999996,-3.4641016151377544 Z" fill="blue" />
<path d="M3.5000000000000004,-2.598076211353316 L3.0,-1.7320508075688767 L2.4999999999999996,-2.598076211353316 L3.0,-3.4641016151377553 L3.5000000000000004,-2.598076211353316 Z" fill="green" />
<path d="M4.0,-1.7320508075688772 L3.5,-0.8660254037844379 L2.9999999999999996,-1.7320508075688772 L3.5,-2.5980762113533165 L4.0,-1.7320508075688772 Z" fill="green" />
<path d="M4.5,-0.8660254037844388 L4.0,4.440892098500626e-16 L3.4999999999999996,-0.8660254037844388 L4.0,-1.732050807568878 L4.5,-0.8660254037844388 Z" fill="green" />
<path d="M4.999999999999999,-1.1102230246251565e-16 L4.0,-1.7763568394002505e-15 L4.500000000000001,-0.8660254037844387 L5.5,-0.866025403784437 L4.999999999999999,-1.1102230246251565e-16 Z" fill="blue" />
<path d="M5.500000000000001,0.8660254037844386 L5.0,1.7320508075688785 L4.499999999999999,0.8660254037844386 L5.0,-1.3322676295501878e-15 L5.500000000000001,0.8660254037844386 Z" fill="green" />
<path d="M6.000000000000001,1.732050807568877 L5.5,2.598076211353317 L4.999999999999999,1.732050807568877 L5.5,0.866025403784437 L6.000000000000001,1.732050807568877 Z" fill="green" />
<path d="M6.500000000000002,2.598076211353316 L6.0,3.464101615137757 L5.499999999999998,2.598076211353316 L6.0,1.7320508075688745 L6.500000000000002,2.598076211353316 Z" fill="green" />
<path d="M7.0,3.464101615137754 L6.0,3.4641016151377544 L6.5,2.5980762113533156 L7.5,2.598076211353315 L7.0,3.464101615137754 Z" fill="red" />
<path d="M7.500000000000001,4.330127018922193 L6.5,4.3301270189221945 L6.999999999999999,3.4641016151377544 L8.0,3.4641016151377526 L7.500000000000001,4.330127018922193 Z" fill="red" />
<path d="M3.5,-2.5980762113533156 L3.0,-3.464101615137754 L4.0,-3.464101615137754 L4.5,-2.598076211353316 L3.5,-2.5980762113533156 Z" fill="red" />
<path d="M3.9999999999999996,-3.4641016151377544 L3.0,-3.4641016151377553 L3.5000000000000004,-4.330127018922193 L4.5,-4.330127018922192 L3.9999999999999996,-3.4641016151377544 Z" fill="blue" />
<path d="M4.0,-1.7320508075688772 L3.5,-2.5980762113533156 L4.5,-2.5980762113533156 L5.0,-1.7320508075688776 L4.0,-1.7320508075688772 Z" fill="red" />
<path d="M4.5,-0.8660254037844389 L4.0,-1.7320508075688772 L5.0,-1.7320508075688776 L5.5,-0.8660254037844393 L4.5,-0.8660254037844389 Z" fill="red" />
<path d="M5.999999999999999,1.1102230246251565e-16 L5.0,-8.881784197001252e-16 L5.500000000000001,-0.8660254037844385 L6.5,-0.8660254037844375 L5.999999999999999,1.1102230246251565e-16 Z" fill="blue" />
<path d="M6.5,0.8660254037844384 L6.0,1.7320508075688776 L5.5,0.8660254037844384 L6.0,-8.881784197001252e-16 L6.5,0.8660254037844384 Z" fill="green" />
<path d="M6.500000000000001,2.598076211353316 L6.0,1.7320508075688785 L6.999999999999999,1.7320508075688776 L7.5,2.598076211353315 L6.500000000000001,2.598076211353316 Z" fill="blue" />
<path d="M6.999999999999998,1.7320508075688772 L6.0,1.732050807568875 L6.500000000000002,0.8660254037844387 L7.5,0.866025403784441 L6.999999999999998,1.7320508075688772 Z" fill="red" />
<path d="M8.000000000000002,3.4641016151377544 L7.0,3.464101615137756 L7.499999999999999,2.598076211353316 L8.5,2.5980762113533142 L8.000000000000002,3.4641016151377544 Z" fill="red" />
<path d="M5.0,-3.4641016151377544 L4.5,-2.5980762113533156 L4.0,-3.4641016151377544 L4.5,-4.330127018922193 L5.0,-3.4641016151377544 Z" fill="green" />
<path d="M5.0,-1.7320508075688772 L4.5,-2.5980762113533156 L5.5,-2.5980762113533156 L6.0,-1.7320508075688776 L5.0,-1.7320508075688772 Z" fill="red" />
<path d="M5.5,-2.5980762113533156 L4.5,-2.598076211353316 L5.0,-3.464101615137754 L6.0,-3.464101615137754 L5.5,-2.5980762113533156 Z" fill="blue" />
<path d="M5.500000000000001,-0.8660254037844383 L5.0,-1.7320508075688759 L5.999999999999999,-1.7320508075688767 L6.5,-0.8660254037844393 L5.500000000000001,-0.8660254037844383 Z" fill="red" />
<path d="M6.500000000000001,0.8660254037844385 L6.0,8.881784197001252e-16 L6.999999999999999,-1.1102230246251565e-16 L7.5,0.8660254037844375 L6.500000000000001,0.8660254037844385 Z" fill="blue" />
<path d="M8.0,1.7320508075688772 L7.5,2.598076211353315 L7.0,1.7320508075688772 L7.5,0.8660254037844393 L8.0,1.7320508075688772 Z" fill="green" />
<path d="M8.500000000000002,2.598076211353316 L7.5,2.598076211353318 L7.999999999999999,1.7320508075688776 L9.0,1.7320508075688759 L8.500000000000002,2.598076211353316 Z" fill="red" />
<path d="M5.000000000000001,-3.464101615137755 L4.5,-4.330127018922191 L5.499999999999999,-4.330127018922194 L6.0,-3.464101615137756 L5.000000000000001,-3.464101615137755 Z" fill="red" />
<path d="M6.500000000000002,-2.598076211353316 L6.0,-1.7320508075688745 L5.499999999999998,-2.598076211353316 L6.0,-3.464101615137757 L6.500000000000002,-2.598076211353316 Z" fill="green" />
<path d="M7.000000000000001,-1.7320508075688772 L6.5,-0.8660254037844366 L5.999999999999999,-1.7320508075688772 L6.5,-2.598076211353318 L7.000000000000001,-1.7320508075688772 Z" fill="green" />
<path d="M7.500000000000001,-0.8660254037844388 L7.0,1.7763568394002505e-15 L6.499999999999999,-0.8660254037844388 L7.0,-1.7320508075688794 L7.500000000000001,-0.8660254037844388 Z" fill="green" />
<path d="M7.999999999999998,-3.3306690738754696e-16 L7.0,-2.6645352591003757e-15 L7.500000000000002,-0.8660254037844389 L8.5,-0.8660254037844366 L7.999999999999998,-3.3306690738754696e-16 Z" fill="blue" />
<path d="M8.0,1.7320508075688772 L7.5,0.8660254037844384 L8.5,0.8660254037844387 L9.0,1.7320508075688776 L8.0,1.7320508075688772 Z" fill="blue" />
<path d="M8.5,0.866025403784438 L7.5,0.8660254037844384 L8.0,-5.551115123125783e-16 L9.0,-8.881784197001252e-16 L8.5,0.866025403784438 Z" fill="red" />
<path d="M5.999999999999999,-3.464101615137755 L5.5,-4.3301270189221945 L6.500000000000001,-4.330127018922194 L7.0,-3.4641016151377535 L5.999999999999999,-3.464101615137755 Z" fill="red" />
<path d="M6.5,-2.5980762113533156 L6.0,-3.4641016151377544 L7.0,-3.464101615137754 L7.5,-2.598076211353315 L6.5,-2.5980762113533156 Z" fill="red" />
<path d="M7.0,-1.7320508075688772 L6.5,-2.598076211353316 L7.5,-2.5980762113533156 L8.0,-1.7320508075688767 L7.0,-1.7320508075688772 Z" fill="red" />
<path d="M7.5,-0.8660254037844387 L7.0,-1.7320508075688776 L8.0,-1.7320508075688772 L8.5,-0.8660254037844384 L7.5,-0.8660254037844387 Z" fill="red" />
<path d="M9.499999999999998,0.8660254037844388 L9.0,1.732050807568874 L8.500000000000002,0.8660254037844388 L9.0,3.552713678800501e-15 L9.499999999999998,0.8660254037844388 Z" fill="green" />
<path d="M6.999999999999999,-3.4641016151377544 L6.5,-4.3301270189221945 L7.500000000000001,-4.330127018922193 L8.0,-3.4641016151377526 L6.999999999999999,-3.4641016151377544 Z" fill="red" />
<path d="M7.499999999999999,-2.598076211353316 L7.0,-3.464101615137756 L8.000000000000002,-3.4641016151377544 L8.5,-2.5980762113533142 L7.499999999999999,-2.598076211353316 Z" fill="red" />
<path d="M7.999999999999999,-1.7320508075688776 L7.5,-2.598076211353318 L8.500000000000002,-2.598076211353316 L9.0,-1.7320508075688759 L7.999999999999999,-1.7320508075688776 Z" fill="red" />
<path d="M8.499999999999998,-0.8660254037844383 L8.0,-1.7320508075688785 L9.000000000000002,-1.7320508075688767 L9.5,-0.8660254037844366 L8.499999999999998,-0.8660254037844383 Z" fill="red" />
<path d="M8.999999999999998,1.1102230246251565e-16 L8.5,-0.8660254037844428 L9.500000000000002,-0.8660254037844385 L10.0,4.440892098500626e-15 L8.999999999999998,1.1102230246251565e-16 Z" fill="red" />
</svg>