<?xml version="1.0" encoding="UTF-8"?>
<svg xmlns="http://www.w3.org/2000/svg" xmlns:xlink="http://www.w3.org/1999/xlink"
     width="4" height="4" viewBox="0 -2.0 4 4">
<defs>
</defs>
<path d="M0.5,0.8660254037844386 L0.0,-1.1102230246251565e-16 L1.0,-0.0 L1.5,0.8660254037844386 L0.5,0.8660254037844386 Z" fill="blue" />
<path d="M0.9999999999999998,1.7320508075688772 L0.5,0.8660254037844384 L1.5000000000000002,0.8660254037844387 L2.0,1.7320508075688776 L0.9999999999999998,1.7320508075688772 Z" fill="blue" />
<path d="M1.5,-0.8660254037844386 L1.0,-0.0 L0.5,-0.8660254037844386 L1.0,-1.7320508075688772 L1.5,-0.8660254037844386 Z" fill="green" />
<path d="M2.0,-1.1102230246251565e-16 L1.0,2.220446049250313e-16 L1.4999999999999998,-0.8660254037844387 L2.5,-0.866025403784439 L2.0,-1.1102230246251565e-16 Z" fill="blue" />
<path d="M2.4999999999999996,0.8660254037844387 L2.0,1.732050807568877 L1.5000000000000002,0.8660254037844387 L2.0,4.440892098500626e-16 L2.4999999999999996,0.8660254037844387 Z" fill="green" />
<path d="M3.0000000000000004,1.7320508075688767 L2.0,1.7320508075688776 L2.4999999999999996,0.8660254037844383 L3.5,0.8660254037844377 L3.0000000000000004,1.7320508075688767 Z" fill="red" />
<path d="M1.4999999999999998,-0.8660254037844387 L1.0,-1.7320508075688776 L2.0,-1.7320508075688772 L2.5,-0.8660254037844384 L1.4999999999999998,-0.8660254037844387 Z" fill="red" />
<path d="M2.5,0.8660254037844385 L2.0,-4.440892098500626e-16 L3.0,-1.1102230246251565e-16 L3.5,0.8660254037844388 L2.5,0.8660254037844385 Z" fill="blue" />
<path d="M2.4999999999999996,-0.8660254037844383 L2.0,-1.7320508075688776 L3.0000000000000004,-1.7320508075688767 L3.5,-0.8660254037844377 L2.4999999999999996,-0.8660254037844383 Z" fill="red" />
<path d="M3.0,1.1102230246251565e-16 L2.5,-0.8660254037844388 L3.5,-0.8660254037844385 L4.0,4.440892098500626e-16 L3.0,1.1102230246251565e-16 Z" fill="red" />
</svg>