<?xml version="1.0" encoding="UTF-8"?>
<svg xmlns="http://www.w3.org/2000/svg" xmlns:xlink="http://www.w3.org/1999/xlink"
     width="20" height="20" viewBox="0 -10.0 20 20">
<defs>
</defs>
<path d="M1.0,-0.0 L0.0,1.1102230246251565e-16 L0.5,-0.8660254037844386 L1.5,-0.8660254037844386 L1.0,-0.0 Z" fill="blue" />
<path d="M1.5,0.8660254037844386 L1.0,1.7320508075688772 L0.5,0.8660254037844386 L1.0,-0.0 L1.5,0.8660254037844386 Z" fill="green" />
<path d="M1.9999999999999996,1.7320508075688772 L1.5,2.598076211353315 L1.0000000000000004,1.7320508075688772 L1.5,0.8660254037844393 L1.9999999999999996,1.7320508075688772 Z" fill="green" />
<path d="M1.9999999999999998,3.464101615137754 L1.5,2.598076211353315 L2.5,2.5980762113533156 L3.0,3.4641016151377544 L1.9999999999999998,3.464101615137754 Z" fill="blue" />
<path d="M2.5,2.5980762113533156 L1.5,2.598076211353316 L1.9999999999999998,1.7320508075688772 L3.0,1.7320508075688767 L2.5,2.5980762113533156 Z" fill="red" />
<path d="M2.5000000000000004,4.330127018922193 L2.0,3.4641016151377553 L2.9999999999999996,3.4641016151377544 L3.5,4.330127018922192 L2.5000000000000004,4.330127018922193 Z" fill="blue" />
<path d="M3.0,5.196152422706632 L2.5,4.330127018922193 L3.5,4.330127018922193 L4.0,5.196152422706632 L3.0,5.196152422706632 Z" fill="blue" />
<path d="M3.5000000000000004,6.06217782649107 L3.0,5.196152422706632 L3.9999999999999996,5.196152422706631 L4.5,6.062177826491069 L3.5000000000000004,6.06217782649107 Z" fill="blue" />
<path d="M4.000000000000001,6.92820323027551 L3.5,6.062177826491071 L4.499999999999999,6.06217782649107 L5.0,6.928203230275508 L4.000000000000001,6.92820323027551 Z" fill="blue" />
<path d="M4.499999999999999,7.794228634059947 L4.0,6.928203230275507 L5.000000000000001,6.928203230275508 L5.5,7.794228634059949 L4.499999999999999,7.794228634059947 Z" fill="blue" />
<path d="M5.0,8.660254037844384 L4.5,7.794228634059946 L5.5,7.794228634059945 L6.0,8.660254037844386 L5.0,8.660254037844384 Z" fill="blue" />
<path d="M1.5000000000000002,-0.8660254037844387 L0.5,-0.8660254037844384 L0.9999999999999998,-1.7320508075688772 L2.0,-1.7320508075688776 L1.5000000000000002,-0.8660254037844387 Z" fill="blue" />
<path d="M1.4999999999999998,0.8660254037844387 L1.0,-2.220446049250313e-16 L2.0,1.1102230246251565e-16 L2.5,0.866025403784439 L1.4999999999999998,0.8660254037844387 Z" fill="blue" />
<path d="M2.0,1.7320508075688772 L1.5,0.8660254037844386 L2.5,0.8660254037844387 L3.0,1.7320508075688772 L2.0,1.7320508075688772 Z" fill="blue" />
<path d="M3.5000000000000004,2.598076211353316 L3.0,3.4641016151377553 L2.4999999999999996,2.598076211353316 L3.0,1.7320508075688767 L3.5000000000000004,2.598076211353316 Z" fill="green" />
<path d="M4.0,3.4641016151377544 L3.5,4.330127018922194 L2.9999999999999996,3.4641016151377544 L3.5,2.598076211353315 L4.0,3.4641016151377544 Z" fill="green" />
<path d="M4.5,4.330127018922193 L4.0,5.196152422706632 L3.4999999999999996,4.330127018922193 L4.0,3.4641016151377535 L4.5,4.330127018922193 Z" fill="green" />
<path d="M5.000000000000001,5.196152422706632 L4.5,6.062177826491072 L3.999999999999999,5.196152422706632 L4.5,4.330127018922191 L5.000000000000001,5.196152422706632 Z" fill="green" />
<path d="M5.5,6.0621778264910695 L5.0,6.928203230275508 L4.5,6.0621778264910695 L5.0,5.196152422706632 L5.5,6.0621778264910695 Z" fill="green" />
<path d="M5.999999999999999,6.928203230275509 L5.5,7.794228634059945 L5.000000000000001,6.928203230275509 L5.5,6.062177826491072 L5.999999999999999,6.928203230275509 Z" fill="green" />
<path d="M6.5,7.794228634059946 L6.0,8.660254037844386 L5.5,7.794228634059946 L6.0,6.928203230275509 L6.5,7.794228634059946 Z" fill="green" />
<path d="M7.000000000000002,8.660254037844386 L6.0,8.660254037844389 L6.499999999999998,7.794228634059947 L7.5,7.7942286340599445 L7.000000000000002,8.660254037844386 Z" fill="red" />
<path d="M2.0,-1.7320508075688772 L1.0,-1.7320508075688767 L1.4999999999999998,-2.5980762113533156 L2.5,-2.598076211353316 L2.0,-1.7320508075688772 Z" fill="blue" />
<path d="M2.4999999999999996,-0.8660254037844387 L2.0,-4.440892098500626e-16 L1.5000000000000002,-0.8660254037844387 L2.0,-1.732050807568877 L2.4999999999999996,-0.8660254037844387 Z" fill="green" />
<path d="M3.0,1.1102230246251565e-16 L2.0,4.440892098500626e-16 L2.5,-0.8660254037844385 L3.5,-0.8660254037844388 L3.0,1.1102230246251565e-16 Z" fill="blue" />
<path d="M3.4999999999999996,0.8660254037844384 L3.0,1.7320508075688763 L2.5000000000000004,0.8660254037844384 L3.0,4.440892098500626e-16 L3.4999999999999996,0.8660254037844384 Z" fill="green" />
<path d="M4.0,1.7320508075688772 L3.5,2.5980762113533165 L2.9999999999999996,1.7320508075688772 L3.5,0.8660254037844379 L4.0,1.7320508075688772 Z" fill="green" />
<path d="M4.5,2.598076211353316 L4.0,3.4641016151377544 L3.5,2.598076211353316 L4.0,1.7320508075688772 L4.5,2.598076211353316 Z" fill="green" />
<path d="M5.0,3.4641016151377544 L4.5,4.330127018922193 L4.0,3.4641016151377544 L4.5,2.5980762113533156 L5.0,3.4641016151377544 Z" fill="green" />
<path d="M5.0,5.196152422706632 L4.5,4.330127018922193 L5.5,4.330127018922193 L6.0,5.196152422706632 L5.0,5.196152422706632 Z" fill="blue" />
<path d="M5.499999999999999,4.330127018922194 L4.5,4.330127018922191 L5.000000000000001,3.464101615137755 L6.0,3.464101615137756 L5.499999999999999,4.330127018922194 Z" fill="red" />
<path d="M5.499999999999998,6.06217782649107 L5.0,5.1961524227066285 L6.000000000000002,5.196152422706631 L6.5,6.062177826491073 L5.499999999999998,6.06217782649107 Z" fill="blue" />
<path d="M6.0,6.928203230275509 L5.5,6.0621778264910695 L6.5,6.0621778264910695 L7.0,6.928203230275509 L6.0,6.928203230275509 Z" fill="blue" />
<path d="M6.5,7.794228634059948 L6.0,6.928203230275509 L7.0,6.928203230275509 L7.5,7.794228634059948 L6.5,7.794228634059948 Z" fill="blue" />
<path d="M8.000000000000002,8.660254037844386 L7.0,8.660254037844389 L7.499999999999998,7.794228634059947 L8.5,7.7942286340599445 L8.000000000000002,8.660254037844386 Z" fill="red" />
<path d="M2.5,-2.5980762113533156 L1.5,-2.598076211353315 L1.9999999999999998,-3.464101615137754 L3.0,-3.4641016151377544 L2.5,-2.5980762113533156 Z" fill="blue" />
<path d="M2.4999999999999996,-0.8660254037844383 L2.0,-1.7320508075688776 L3.0000000000000004,-1.7320508075688767 L3.5,-0.8660254037844377 L2.4999999999999996,-0.8660254037844383 Z" fill="red" />
<path d="M3.0,-1.7320508075688772 L2.0,-1.7320508075688767 L2.5,-2.5980762113533156 L3.5,-2.598076211353316 L3.0,-1.7320508075688772 Z" fill="blue" />
<path d="M3.5,0.8660254037844385 L3.0,-4.440892098500626e-16 L4.0,-1.1102230246251565e-16 L4.5,0.8660254037844388 L3.5,0.8660254037844385 Z" fill="blue" />
<path d="M4.0,1.7320508075688776 L3.5,0.8660254037844393 L4.5,0.8660254037844389 L5.0,1.7320508075688772 L4.0,1.7320508075688776 Z" fill="blue" />
<path d="M4.5,2.5980762113533156 L4.0,1.7320508075688776 L5.0,1.7320508075688772 L5.5,2.5980762113533156 L4.5,2.5980762113533156 Z" fill="blue" />
<path d="M5.0,3.464101615137754 L4.5,2.598076211353316 L5.5,2.5980762113533156 L6.0,3.464101615137754 L5.0,3.464101615137754 Z" fill="blue" />
<path d="M6.5,4.330127018922193 L6.0,5.196152422706631 L5.5,4.330127018922193 L6.0,3.4641016151377553 L6.5,4.330127018922193 Z" fill="green" />
<path d="M6.999999999999998,5.196152422706632 L6.5,6.062177826491067 L6.000000000000002,5.196152422706632 L6.5,4.330127018922196 L6.999999999999998,5.196152422706632 Z" fill="green" />
<path d="M6.999999999999999,6.92820323027551 L6.5,6.062177826491069 L7.500000000000001,6.06217782649107 L8.0,6.9282032302755105 L6.999999999999999,6.92820323027551 Z" fill="blue" />
<path d="M7.499999999999999,6.06217782649107 L6.5,6.0621778264910695 L7.000000000000001,5.196152422706631 L8.0,5.196152422706633 L7.499999999999999,6.06217782649107 Z" fill="red" />
<path d="M7.499999999999997,7.794228634059947 L7.0,6.928203230275504 L8.000000000000002,6.928203230275508 L8.5,7.794228634059952 L7.499999999999997,7.794228634059947 Z" fill="blue" />
<path d="M9.0,8.660254037844387 L8.0,8.660254037844387 L8.5,7.794228634059949 L9.5,7.794228634059948 L9.0,8.660254037844387 Z" fill="red" />
<path d="M2.9999999999999996,-3.4641016151377544 L2.0,-3.4641016151377553 L2.5000000000000004,-4.330127018922193 L3.5,-4.330127018922192 L2.9999999999999996,-3.4641016151377544 Z" fill="blue" />
<path d="M3.4999999999999996,-2.598076211353316 L2.5,-2.598076211353317 L3.0000000000000004,-3.4641016151377544 L4.0,-3.4641016151377535 L3.4999999999999996,-2.598076211353316 Z" fill="blue" />
<path d="M4.0,-1.7320508075688772 L3.5,-0.8660254037844379 L2.9999999999999996,-1.7320508075688772 L3.5,-2.5980762113533165 L4.0,-1.7320508075688772 Z" fill="green" />
<path d="M4.5,-0.8660254037844388 L4.0,4.440892098500626e-16 L3.4999999999999996,-0.8660254037844388 L4.0,-1.732050807568878 L4.5,-0.8660254037844388 Z" fill="green" />
<path d="M4.999999999999999,-1.1102230246251565e-16 L4.0,-1.7763568394002505e-15 L4.500000000000001,-0.8660254037844387 L5.5,-0.866025403784437 L4.999999999999999,-1.1102230246251565e-16 Z" fill="blue" />
<path d="M5.500000000000001,0.8660254037844386 L5.0,1.7320508075688785 L4.499999999999999,0.8660254037844386 L5.0,-1.3322676295501878e-15 L5.500000000000001,0.8660254037844386 Z" fill="green" />
<path d="M6.000000000000001,1.732050807568877 L5.5,2.598076211353317 L4.999999999999999,1.732050807568877 L5.5,0.866025403784437 L6.000000000000001,1.732050807568877 Z" fill="green" />
<path d="M6.500000000000002,2.598076211353316 L6.0,3.464101615137757 L5.499999999999998,2.598076211353316 L6.0,1.7320508075688745 L6.500000000000002,2.598076211353316 Z" fill="green" />
<path d="M6.499999999999999,4.330127018922194 L6.0,3.4641016151377535 L7.000000000000001,3.464101615137755 L7.5,4.3301270189221945 L6.499999999999999,4.330127018922194 Z" fill="blue" />
<path d="M7.0,3.464101615137754 L6.0,3.4641016151377544 L6.5,2.5980762113533156 L7.5,2.598076211353315 L7.0,3.464101615137754 Z" fill="red" />
<path d="M7.000000000000001,5.196152422706631 L6.5,4.330127018922194 L7.499999999999999,4.330127018922192 L8.0,5.19615242270663 L7.000000000000001,5.196152422706631 Z" fill="blue" />
<path d="M7.999999999999999,6.92820323027551 L7.5,6.062177826491069 L8.500000000000002,6.06217782649107 L9.0,6.9282032302755105 L7.999999999999999,6.92820323027551 Z" fill="blue" />
<path d="M8.500000000000002,6.06217782649107 L7.5,6.062177826491071 L7.999999999999999,5.196152422706631 L9.0,5.196152422706629 L8.500000000000002,6.06217782649107 Z" fill="red" />
<path d="M8.5,7.794228634059947 L8.0,6.92820323027551 L9.0,6.928203230275508 L9.5,7.794228634059946 L8.5,7.794228634059947 Z" fill="blue" />
<path d="M10.000000000000002,8.660254037844386 L9.0,8.660254037844389 L9.499999999999998,7.794228634059947 L10.5,7.7942286340599445 L10.000000000000002,8.660254037844386 Z" fill="red" />
<path d="M3.5,-4.330127018922193 L2.5,-4.330127018922193 L3.0,-5.196152422706632 L4.0,-5.196152422706632 L3.5,-4.330127018922193 Z" fill="blue" />
<path d="M3.9999999999999996,-3.4641016151377544 L3.0,-3.4641016151377553 L3.5000000000000004,-4.330127018922193 L4.5,-4.330127018922192 L3.9999999999999996,-3.4641016151377544 Z" fill="blue" />
<path d="M4.5,-2.598076211353316 L4.0,-1.7320508075688772 L3.5,-2.598076211353316 L4.0,-3.4641016151377544 L4.5,-2.598076211353316 Z" fill="green" />
<path d="M5.0,-1.7320508075688774 L4.5,-0.8660254037844388 L4.0,-1.7320508075688774 L4.5,-2.598076211353316 L5.0,-1.7320508075688774 Z" fill="green" />
<path d="M5.499999999999999,-0.8660254037844385 L4.5,-0.8660254037844402 L5.000000000000001,-1.7320508075688772 L6.0,-1.7320508075688754 L5.499999999999999,-0.8660254037844385 Z" fill="blue" />
<path d="M5.500000000000001,0.8660254037844385 L5.0,8.881784197001252e-16 L5.999999999999999,-1.1102230246251565e-16 L6.5,0.8660254037844375 L5.500000000000001,0.8660254037844385 Z" fill="blue" />
<path d="M6.000000000000001,1.7320508075688767 L5.5,0.8660254037844393 L6.499999999999999,0.8660254037844383 L7.0,1.7320508075688759 L6.000000000000001,1.7320508075688767 Z" fill="blue" />
<path d="M6.500000000000001,2.598076211353316 L6.0,1.7320508075688785 L6.999999999999999,1.7320508075688776 L7.5,2.598076211353315 L6.500000000000001,2.598076211353316 Z" fill="blue" />
<path d="M7.5,4.330127018922193 L7.0,3.4641016151377535 L8.0,3.464101615137754 L8.5,4.330127018922193 L7.5,4.330127018922193 Z" fill="blue" />
<path d="M8.000000000000002,3.4641016151377544 L7.0,3.464101615137756 L7.499999999999999,2.598076211353316 L8.5,2.5980762113533142 L8.000000000000002,3.4641016151377544 Z" fill="red" />
<path d="M8.0,5.196152422706632 L7.5,4.330127018922193 L8.5,4.330127018922193 L9.0,5.196152422706632 L8.0,5.196152422706632 Z" fill="blue" />
<path d="M9.499999999999998,6.06217782649107 L9.0,6.928203230275507 L8.500000000000002,6.06217782649107 L9.0,5.196152422706634 L9.499999999999998,6.06217782649107 Z" fill="green" />
<path d="M10.0,6.928203230275509 L9.5,7.794228634059948 L9.0,6.928203230275509 L9.5,6.0621778264910695 L10.0,6.928203230275509 Z" fill="green" />
<path d="M10.500000000000002,7.794228634059947 L9.5,7.794228634059949 L9.999999999999998,6.928203230275508 L11.0,6.928203230275507 L10.500000000000002,7.794228634059947 Z" fill="red" />
<path d="M11.000000000000002,8.660254037844386 L10.0,8.660254037844389 L10.499999999999998,7.794228634059947 L11.5,7.7942286340599445 L11.000000000000002,8.660254037844386 Z" fill="red" />
<path d="M3.9999999999999996,-5.196152422706631 L3.0,-5.196152422706632 L3.5000000000000004,-6.06217782649107 L4.5,-6.062177826491069 L3.9999999999999996,-5.196152422706631 Z" fill="blue" />
<path d="M4.499999999999999,-4.330127018922192 L3.5,-4.330127018922194 L4.000000000000001,-5.196152422706631 L5.0,-5.19615242270663 L4.499999999999999,-4.330127018922192 Z" fill="blue" />
<path d="M5.0,-3.4641016151377544 L4.5,-2.5980762113533156 L4.0,-3.4641016151377544 L4.5,-4.330127018922193 L5.0,-3.4641016151377544 Z" fill="green" />
<path d="M5.5,-2.598076211353316 L5.0,-1.7320508075688772 L4.5,-2.598076211353316 L5.0,-3.4641016151377544 L5.5,-2.598076211353316 Z" fill="green" />
<path d="M5.999999999999999,-1.7320508075688772 L5.0,-1.7320508075688785 L5.500000000000001,-2.5980762113533156 L6.5,-2.598076211353314 L5.999999999999999,-1.7320508075688772 Z" fill="blue" />
<path d="M6.000000000000001,1.1102230246251565e-16 L5.5,-0.8660254037844375 L6.499999999999999,-0.8660254037844385 L7.0,-8.881784197001252e-16 L6.000000000000001,1.1102230246251565e-16 Z" fill="red" />
<path d="M6.499999999999999,-0.8660254037844383 L5.5,-0.8660254037844393 L6.000000000000001,-1.7320508075688767 L7.0,-1.7320508075688759 L6.499999999999999,-0.8660254037844383 Z" fill="blue" />
<path d="M7.500000000000001,0.8660254037844388 L7.0,1.7320508075688794 L6.499999999999999,0.8660254037844388 L7.0,-1.7763568394002505e-15 L7.500000000000001,0.8660254037844388 Z" fill="green" />
<path d="M7.499999999999999,2.598076211353316 L7.0,1.7320508075688759 L8.000000000000002,1.7320508075688776 L8.5,2.598076211353318 L7.499999999999999,2.598076211353316 Z" fill="blue" />
<path d="M8.0,1.7320508075688772 L7.0,1.7320508075688776 L7.5,0.8660254037844387 L8.5,0.8660254037844384 L8.0,1.7320508075688772 Z" fill="red" />
<path d="M9.0,3.4641016151377544 L8.5,4.330127018922194 L8.0,3.4641016151377544 L8.5,2.598076211353315 L9.0,3.4641016151377544 Z" fill="green" />
<path d="M9.499999999999998,4.330127018922193 L9.0,5.196152422706629 L8.500000000000002,4.330127018922193 L9.0,3.464101615137756 L9.499999999999998,4.330127018922193 Z" fill="green" />
<path d="M9.999999999999998,5.196152422706632 L9.5,6.062177826491069 L9.000000000000002,5.196152422706632 L9.5,4.330127018922195 L9.999999999999998,5.196152422706632 Z" fill="green" />
<path d="M10.5,6.06217782649107 L10.0,6.92820323027551 L9.5,6.06217782649107 L10.0,5.196152422706631 L10.5,6.06217782649107 Z" fill="green" />
<path d="M11.000000000000002,6.92820323027551 L10.0,6.9282032302755105 L10.499999999999998,6.06217782649107 L11.5,6.062177826491069 L11.000000000000002,6.92820323027551 Z" fill="red" />
<path d="M11.500000000000002,7.794228634059949 L10.5,7.79422863405995 L10.999999999999998,6.92820323027551 L12.0,6.928203230275508 L11.500000000000002,7.794228634059949 Z" fill="red" />
<path d="M11.999999999999996,8.660254037844384 L11.0,8.66025403784438 L11.500000000000004,7.794228634059945 L12.5,7.794228634059952 L11.999999999999996,8.660254037844384 Z" fill="red" />
<path d="M4.499999999999999,-6.06217782649107 L3.5,-6.062177826491071 L4.000000000000001,-6.92820323027551 L5.0,-6.928203230275508 L4.499999999999999,-6.06217782649107 Z" fill="blue" />
<path d="M4.999999999999999,-5.196152422706631 L4.0,-5.196152422706633 L4.500000000000001,-6.06217782649107 L5.5,-6.0621778264910695 L4.999999999999999,-5.196152422706631 Z" fill="blue" />
<path d="M5.5,-4.330127018922193 L5.0,-3.4641016151377535 L4.5,-4.330127018922193 L5.0,-5.196152422706632 L5.5,-4.330127018922193 Z" fill="green" />
<path d="M5.500000000000001,-2.5980762113533165 L5.0,-3.464101615137753 L5.999999999999999,-3.464101615137755 L6.5,-2.598076211353318 L5.500000000000001,-2.5980762113533165 Z" fill="red" />
<path d="M6.0,-3.464101615137755 L5.0,-3.4641016151377553 L5.5,-4.330127018922194 L6.5,-4.330127018922193 L6.0,-3.464101615137755 Z" fill="blue" />
<path d="M6.999999999999999,-1.7320508075688776 L6.0,-1.7320508075688785 L6.500000000000001,-2.598076211353316 L7.5,-2.598076211353315 L6.999999999999999,-1.7320508075688776 Z" fill="blue" />
<path d="M7.500000000000001,-0.8660254037844388 L7.0,1.7763568394002505e-15 L6.499999999999999,-0.8660254037844388 L7.0,-1.7320508075688794 L7.500000000000001,-0.8660254037844388 Z" fill="green" />
<path d="M7.999999999999998,-3.3306690738754696e-16 L7.0,-2.6645352591003757e-15 L7.500000000000002,-0.8660254037844389 L8.5,-0.8660254037844366 L7.999999999999998,-3.3306690738754696e-16 Z" fill="blue" />
<path d="M8.5,0.866025403784438 L7.5,0.8660254037844384 L8.0,-5.551115123125783e-16 L9.0,-8.881784197001252e-16 L8.5,0.866025403784438 Z" fill="red" />
<path d="M9.0,1.7320508075688772 L8.5,2.598076211353315 L8.0,1.7320508075688772 L8.5,0.8660254037844393 L9.0,1.7320508075688772 Z" fill="green" />
<path d="M9.500000000000002,2.5980762113533156 L9.0,3.464101615137756 L8.499999999999998,2.5980762113533156 L9.0,1.732050807568875 L9.500000000000002,2.5980762113533156 Z" fill="green" />
<path d="M10.0,3.464101615137754 L9.5,4.330127018922192 L9.0,3.464101615137754 L9.5,2.598076211353316 L10.0,3.464101615137754 Z" fill="green" />
<path d="M10.5,4.330127018922193 L10.0,5.196152422706631 L9.5,4.330127018922193 L10.0,3.4641016151377553 L10.5,4.330127018922193 Z" fill="green" />
<path d="M11.000000000000002,5.196152422706632 L10.5,6.062177826491072 L9.999999999999998,5.196152422706632 L10.5,4.330127018922191 L11.000000000000002,5.196152422706632 Z" fill="green" />
<path d="M11.500000000000002,6.06217782649107 L10.5,6.062177826491071 L10.999999999999998,5.196152422706631 L12.0,5.196152422706629 L11.500000000000002,6.06217782649107 Z" fill="red" />
<path d="M12.000000000000002,6.92820323027551 L11.0,6.9282032302755105 L11.499999999999998,6.06217782649107 L12.5,6.062177826491069 L12.000000000000002,6.92820323027551 Z" fill="red" />
<path d="M12.499999999999998,7.794228634059947 L11.5,7.794228634059943 L12.000000000000002,6.928203230275508 L13.0,6.928203230275511 L12.499999999999998,7.794228634059947 Z" fill="red" />
<path d="M12.999999999999996,8.660254037844384 L12.0,8.66025403784438 L12.500000000000004,7.794228634059945 L13.5,7.794228634059952 L12.999999999999996,8.660254037844384 Z" fill="red" />
<path d="M5.000000000000001,-6.928203230275508 L4.0,-6.928203230275507 L4.499999999999999,-7.794228634059947 L5.5,-7.794228634059949 L5.000000000000001,-6.928203230275508 Z" fill="blue" />
<path d="M5.500000000000001,-6.06217782649107 L4.5,-6.062177826491069 L4.999999999999999,-6.92820323027551 L6.0,-6.9282032302755105 L5.500000000000001,-6.06217782649107 Z" fill="blue" />
<path d="M5.999999999999999,-5.196152422706631 L5.5,-4.3301270189221945 L5.000000000000001,-5.196152422706631 L5.5,-6.062177826491068 L5.999999999999999,-5.196152422706631 Z" fill="green" />
<path d="M6.500000000000001,-4.330127018922194 L5.5,-4.330127018922192 L5.999999999999999,-5.196152422706633 L7.0,-5.196152422706634 L6.500000000000001,-4.330127018922194 Z" fill="blue" />
<path d="M6.5,-2.5980762113533156 L6.0,-3.4641016151377544 L7.0,-3.464101615137754 L7.5,-2.598076211353315 L6.5,-2.5980762113533156 Z" fill="red" />
<path d="M7.000000000000001,-3.464101615137755 L6.0,-3.4641016151377535 L6.499999999999999,-4.330127018922194 L7.5,-4.3301270189221945 L7.000000000000001,-3.464101615137755 Z" fill="blue" />
<path d="M8.0,-1.7320508075688772 L7.5,-0.8660254037844393 L7.0,-1.7320508075688772 L7.5,-2.598076211353315 L8.0,-1.7320508075688772 Z" fill="green" />
<path d="M8.5,-0.8660254037844387 L7.5,-0.8660254037844384 L8.0,-1.7320508075688772 L9.0,-1.7320508075688776 L8.5,-0.8660254037844387 Z" fill="blue" />
<path d="M9.499999999999998,0.8660254037844388 L9.0,1.732050807568874 L8.500000000000002,0.8660254037844388 L9.0,3.552713678800501e-15 L9.499999999999998,0.8660254037844388 Z" fill="green" />
<path d="M10.0,1.7320508075688772 L9.5,2.598076211353315 L9.0,1.7320508075688772 L9.5,0.8660254037844393 L10.0,1.7320508075688772 Z" fill="green" />
<path d="M10.499999999999998,2.5980762113533156 L10.0,3.464101615137751 L9.500000000000002,2.5980762113533156 L10.0,1.7320508075688803 L10.499999999999998,2.5980762113533156 Z" fill="green" />
<path d="M10.499999999999998,4.330127018922193 L10.0,3.4641016151377526 L11.000000000000002,3.4641016151377544 L11.5,4.3301270189221945 L10.499999999999998,4.330127018922193 Z" fill="blue" />
<path d="M11.000000000000002,3.4641016151377544 L10.0,3.464101615137759 L10.499999999999998,2.598076211353316 L11.5,2.5980762113533116 L11.000000000000002,3.4641016151377544 Z" fill="red" />
<path d="M10.999999999999998,5.196152422706633 L10.5,4.330127018922192 L11.500000000000002,4.330127018922194 L12.0,5.196152422706634 L10.999999999999998,5.196152422706633 Z" fill="blue" />
<path d="M12.500000000000002,6.06217782649107 L11.5,6.062177826491075 L11.999999999999998,5.196152422706631 L13.0,5.196152422706628 L12.500000000000002,6.06217782649107 Z" fill="red" />
<path d="M13.0,6.928203230275508 L12.0,6.928203230275507 L12.5,6.062177826491069 L13.5,6.06217782649107 L13.0,6.928203230275508 Z" fill="red" />
<path d="M13.5,7.794228634059947 L12.5,7.794228634059946 L13.0,6.928203230275508 L14.0,6.92820323027551 L13.5,7.794228634059947 Z" fill="red" />
<path d="M14.0,8.660254037844387 L13.0,8.660254037844387 L13.5,7.794228634059949 L14.5,7.794228634059948 L14.0,8.660254037844387 Z" fill="red" />
<path d="M5.5,-7.794228634059945 L4.5,-7.794228634059946 L5.0,-8.660254037844384 L6.0,-8.660254037844386 L5.5,-7.794228634059945 Z" fill="blue" />
<path d="M6.0,-6.928203230275508 L5.0,-6.928203230275508 L5.5,-7.794228634059947 L6.5,-7.794228634059947 L6.0,-6.928203230275508 Z" fill="blue" />
<path d="M5.999999999999998,-5.196152422706631 L5.5,-6.062177826491073 L6.500000000000002,-6.06217782649107 L7.0,-5.1961524227066285 L5.999999999999998,-5.196152422706631 Z" fill="red" />
<path d="M6.5,-6.0621778264910695 L5.5,-6.0621778264910695 L6.0,-6.928203230275509 L7.0,-6.928203230275509 L6.5,-6.0621778264910695 Z" fill="blue" />
<path d="M7.499999999999999,-4.330127018922192 L6.5,-4.330127018922194 L7.000000000000001,-5.196152422706631 L8.0,-5.19615242270663 L7.499999999999999,-4.330127018922192 Z" fill="blue" />
<path d="M7.999999999999999,-3.4641016151377544 L7.5,-2.598076211353318 L7.000000000000001,-3.4641016151377544 L7.5,-4.330127018922191 L7.999999999999999,-3.4641016151377544 Z" fill="green" />
<path d="M7.999999999999999,-1.7320508075688776 L7.5,-2.598076211353318 L8.500000000000002,-2.598076211353316 L9.0,-1.7320508075688759 L7.999999999999999,-1.7320508075688776 Z" fill="red" />
<path d="M8.5,-2.5980762113533156 L7.5,-2.598076211353315 L8.0,-3.464101615137754 L9.0,-3.4641016151377544 L8.5,-2.5980762113533156 Z" fill="blue" />
<path d="M9.499999999999998,-0.8660254037844388 L9.0,-3.552713678800501e-15 L8.500000000000002,-0.8660254037844388 L9.0,-1.732050807568874 L9.499999999999998,-0.8660254037844388 Z" fill="green" />
<path d="M9.499999999999998,0.866025403784438 L9.0,-3.552713678800501e-15 L10.000000000000002,-5.551115123125783e-16 L10.5,0.866025403784441 L9.499999999999998,0.866025403784438 Z" fill="blue" />
<path d="M9.999999999999998,1.7320508075688772 L9.5,0.8660254037844357 L10.500000000000002,0.8660254037844387 L11.0,1.7320508075688803 L9.999999999999998,1.7320508075688772 Z" fill="blue" />
<path d="M10.499999999999996,2.5980762113533156 L10.0,1.7320508075688714 L11.000000000000004,1.7320508075688772 L11.5,2.5980762113533213 L10.499999999999996,2.5980762113533156 Z" fill="blue" />
<path d="M11.999999999999998,3.4641016151377544 L11.5,4.330127018922191 L11.000000000000002,3.4641016151377544 L11.5,2.598076211353318 L11.999999999999998,3.4641016151377544 Z" fill="green" />
<path d="M11.999999999999996,5.196152422706632 L11.5,4.330127018922187 L12.500000000000004,4.330127018922193 L13.0,5.196152422706637 L11.999999999999996,5.196152422706632 Z" fill="blue" />
<path d="M12.500000000000002,4.330127018922194 L11.5,4.330127018922196 L11.999999999999998,3.464101615137755 L13.0,3.4641016151377517 L12.500000000000002,4.330127018922194 Z" fill="red" />
<path d="M13.499999999999998,6.06217782649107 L12.5,6.062177826491068 L13.000000000000002,5.196152422706631 L14.0,5.196152422706634 L13.499999999999998,6.06217782649107 Z" fill="red" />
<path d="M13.999999999999998,6.92820323027551 L13.0,6.928203230275507 L13.500000000000002,6.06217782649107 L14.5,6.062177826491073 L13.999999999999998,6.92820323027551 Z" fill="red" />
<path d="M14.499999999999998,7.794228634059949 L13.5,7.794228634059946 L14.000000000000002,6.92820323027551 L15.0,6.928203230275512 L14.499999999999998,7.794228634059949 Z" fill="red" />
<path d="M14.999999999999998,8.660254037844386 L14.0,8.660254037844384 L14.500000000000002,7.794228634059947 L15.5,7.79422863405995 L14.999999999999998,8.660254037844386 Z" fill="red" />
<path d="M6.500000000000002,-7.794228634059947 L5.5,-7.7942286340599445 L5.999999999999998,-8.660254037844386 L7.0,-8.660254037844389 L6.500000000000002,-7.794228634059947 Z" fill="blue" />
<path d="M7.0,-6.928203230275509 L6.0,-6.928203230275509 L6.5,-7.794228634059948 L7.5,-7.794228634059948 L7.0,-6.928203230275509 Z" fill="blue" />
<path d="M7.5,-6.0621778264910695 L7.0,-5.196152422706632 L6.5,-6.0621778264910695 L7.0,-6.928203230275508 L7.5,-6.0621778264910695 Z" fill="green" />
<path d="M7.999999999999999,-5.196152422706631 L7.0,-5.196152422706633 L7.500000000000001,-6.06217782649107 L8.5,-6.0621778264910695 L7.999999999999999,-5.196152422706631 Z" fill="blue" />
<path d="M8.0,-3.4641016151377544 L7.5,-4.330127018922192 L8.5,-4.330127018922193 L9.0,-3.4641016151377553 L8.0,-3.4641016151377544 Z" fill="red" />
<path d="M8.5,-4.330127018922193 L7.5,-4.330127018922193 L8.0,-5.196152422706632 L9.0,-5.196152422706632 L8.5,-4.330127018922193 Z" fill="blue" />
<path d="M9.500000000000002,-2.5980762113533156 L9.0,-1.732050807568875 L8.499999999999998,-2.5980762113533156 L9.0,-3.464101615137756 L9.500000000000002,-2.5980762113533156 Z" fill="green" />
<path d="M10.0,-1.7320508075688772 L9.5,-0.8660254037844393 L9.0,-1.7320508075688772 L9.5,-2.598076211353315 L10.0,-1.7320508075688772 Z" fill="green" />
<path d="M10.0,-3.3306690738754696e-16 L9.5,-0.8660254037844393 L10.5,-0.8660254037844389 L11.0,-0.0 L10.0,-3.3306690738754696e-16 Z" fill="red" />
<path d="M10.500000000000002,-0.8660254037844387 L9.5,-0.8660254037844357 L9.999999999999998,-1.7320508075688772 L11.0,-1.7320508075688803 L10.500000000000002,-0.8660254037844387 Z" fill="blue" />
<path d="M10.999999999999998,1.7320508075688772 L10.5,0.8660254037844357 L11.500000000000002,0.8660254037844387 L12.0,1.7320508075688803 L10.999999999999998,1.7320508075688772 Z" fill="blue" />
<path d="M11.500000000000002,0.866025403784438 L10.5,0.866025403784441 L10.999999999999998,-5.551115123125783e-16 L12.0,-3.552713678800501e-15 L11.500000000000002,0.866025403784438 Z" fill="red" />
<path d="M11.5,2.5980762113533156 L11.0,1.7320508075688767 L12.0,1.7320508075688772 L12.5,2.598076211353316 L11.5,2.5980762113533156 Z" fill="blue" />
<path d="M12.0,3.464101615137755 L11.5,2.598076211353316 L12.5,2.5980762113533165 L13.0,3.4641016151377553 L12.0,3.464101615137755 Z" fill="blue" />
<path d="M13.499999999999998,4.330127018922194 L13.0,5.19615242270663 L12.500000000000002,4.330127018922194 L13.0,3.464101615137757 L13.499999999999998,4.330127018922194 Z" fill="green" />
<path d="M13.999999999999998,5.196152422706631 L13.0,5.1961524227066285 L13.500000000000002,4.330127018922192 L14.5,4.3301270189221945 L13.999999999999998,5.196152422706631 Z" fill="red" />
<path d="M14.499999999999998,6.06217782649107 L13.5,6.062177826491068 L14.000000000000002,5.196152422706631 L15.0,5.196152422706634 L14.499999999999998,6.06217782649107 Z" fill="red" />
<path d="M14.999999999999998,6.92820323027551 L14.0,6.928203230275507 L14.500000000000002,6.06217782649107 L15.5,6.062177826491073 L14.999999999999998,6.92820323027551 Z" fill="red" />
<path d="M15.499999999999998,7.794228634059947 L14.5,7.7942286340599445 L15.000000000000002,6.928203230275508 L16.0,6.9282032302755105 L15.499999999999998,7.794228634059947 Z" fill="red" />
<path d="M7.500000000000002,-7.794228634059947 L6.5,-7.7942286340599445 L6.999999999999998,-8.660254037844386 L8.0,-8.660254037844389 L7.500000000000002,-7.794228634059947 Z" fill="blue" />
<path d="M7.499999999999999,-6.06217782649107 L7.0,-6.9282032302755105 L8.000000000000002,-6.92820323027551 L8.5,-6.062177826491069 L7.499999999999999,-6.06217782649107 Z" fill="red" />
<path d="M8.000000000000002,-6.928203230275508 L7.0,-6.928203230275504 L7.499999999999997,-7.794228634059947 L8.5,-7.794228634059952 L8.000000000000002,-6.928203230275508 Z" fill="blue" />
<path d="M9.000000000000002,-5.196152422706631 L8.0,-5.1961524227066285 L8.499999999999998,-6.06217782649107 L9.5,-6.062177826491073 L9.000000000000002,-5.196152422706631 Z" fill="blue" />
<path d="M9.499999999999998,-4.330127018922193 L9.0,-3.464101615137756 L8.500000000000002,-4.330127018922193 L9.0,-5.196152422706629 L9.499999999999998,-4.330127018922193 Z" fill="green" />
<path d="M10.0,-3.464101615137754 L9.5,-2.598076211353316 L9.0,-3.464101615137754 L9.5,-4.330127018922192 L10.0,-3.464101615137754 Z" fill="green" />
<path d="M10.499999999999998,-2.5980762113533156 L10.0,-1.7320508075688803 L9.500000000000002,-2.5980762113533156 L10.0,-3.464101615137751 L10.499999999999998,-2.5980762113533156 Z" fill="green" />
<path d="M11.000000000000004,-1.7320508075688772 L10.0,-1.7320508075688714 L10.499999999999996,-2.5980762113533156 L11.5,-2.5980762113533213 L11.000000000000004,-1.7320508075688772 Z" fill="blue" />
<path d="M11.499999999999998,-0.8660254037844384 L11.0,-1.7763568394002505e-15 L10.500000000000002,-0.8660254037844384 L11.0,-1.732050807568875 L11.499999999999998,-0.8660254037844384 Z" fill="green" />
<path d="M11.999999999999998,1.7320508075688772 L11.5,0.8660254037844357 L12.500000000000002,0.8660254037844387 L13.0,1.7320508075688803 L11.999999999999998,1.7320508075688772 Z" fill="blue" />
<path d="M12.500000000000004,0.8660254037844389 L11.5,0.8660254037844446 L11.999999999999996,3.3306690738754696e-16 L13.0,-5.329070518200751e-15 L12.500000000000004,0.8660254037844389 Z" fill="red" />
<path d="M12.499999999999998,2.5980762113533165 L12.0,1.732050807568875 L13.000000000000002,1.732050807568878 L13.5,2.5980762113533196 L12.499999999999998,2.5980762113533165 Z" fill="blue" />
<path d="M12.999999999999996,3.464101615137755 L12.5,2.5980762113533107 L13.500000000000004,2.5980762113533165 L14.0,3.4641016151377606 L12.999999999999996,3.464101615137755 Z" fill="blue" />
<path d="M13.5,4.330127018922193 L13.0,3.4641016151377535 L14.0,3.464101615137754 L14.5,4.330127018922193 L13.5,4.330127018922193 Z" fill="blue" />
<path d="M15.0,5.196152422706632 L14.0,5.196152422706632 L14.5,4.330127018922193 L15.5,4.330127018922193 L15.0,5.196152422706632 Z" fill="red" />
<path d="M15.5,6.062177826491071 L14.5,6.062177826491071 L15.0,5.196152422706632 L16.0,5.196152422706632 L15.5,6.062177826491071 Z" fill="red" />
<path d="M16.0,6.928203230275509 L15.0,6.928203230275509 L15.5,6.0621778264910695 L16.5,6.0621778264910695 L16.0,6.928203230275509 Z" fill="red" />
<path d="M8.500000000000002,-7.794228634059947 L7.5,-7.7942286340599445 L7.999999999999998,-8.660254037844386 L9.0,-8.660254037844389 L8.500000000000002,-7.794228634059947 Z" fill="blue" />
<path d="M8.499999999999998,-6.06217782649107 L8.0,-6.9282032302755105 L9.000000000000002,-6.92820323027551 L9.5,-6.062177826491069 L8.499999999999998,-6.06217782649107 Z" fill="red" />
<path d="M9.0,-6.928203230275508 L8.0,-6.92820323027551 L8.5,-7.794228634059947 L9.5,-7.794228634059946 L9.0,-6.928203230275508 Z" fill="blue" />
<path d="M9.999999999999998,-5.196152422706632 L9.5,-4.330127018922195 L9.000000000000002,-5.196152422706632 L9.5,-6.062177826491069 L9.999999999999998,-5.196152422706632 Z" fill="green" />
<path d="M10.5,-4.330127018922193 L10.0,-3.4641016151377553 L9.5,-4.330127018922193 L10.0,-5.196152422706631 L10.5,-4.330127018922193 Z" fill="green" />
<path d="M10.999999999999998,-3.464101615137755 L10.5,-2.5980762113533196 L10.000000000000002,-3.464101615137755 L10.5,-4.33012701892219 L10.999999999999998,-3.464101615137755 Z" fill="green" />
<path d="M11.500000000000002,-2.5980762113533156 L10.5,-2.5980762113533125 L10.999999999999998,-3.464101615137754 L12.0,-3.464101615137757 L11.500000000000002,-2.5980762113533156 Z" fill="blue" />
<path d="M11.999999999999998,-1.7320508075688776 L11.5,-0.866025403784441 L11.000000000000002,-1.7320508075688776 L11.5,-2.5980762113533142 L11.999999999999998,-1.7320508075688776 Z" fill="green" />
<path d="M12.499999999999996,-0.8660254037844393 L12.0,-5.329070518200751e-15 L11.500000000000004,-0.8660254037844393 L12.0,-1.7320508075688732 L12.499999999999996,-0.8660254037844393 Z" fill="green" />
<path d="M13.499999999999998,0.8660254037844384 L13.0,1.732050807568875 L12.500000000000002,0.8660254037844384 L13.0,1.7763568394002505e-15 L13.499999999999998,0.8660254037844384 Z" fill="green" />
<path d="M13.999999999999996,1.7320508075688767 L13.5,2.5980762113533107 L13.000000000000004,1.7320508075688767 L13.5,0.8660254037844428 L13.999999999999996,1.7320508075688767 Z" fill="green" />
<path d="M14.499999999999996,2.598076211353316 L14.0,3.46410161513775 L13.500000000000004,2.598076211353316 L14.0,1.732050807568882 L14.499999999999996,2.598076211353316 Z" fill="green" />
<path d="M14.5,4.330127018922193 L14.0,3.4641016151377535 L15.0,3.464101615137754 L15.5,4.330127018922193 L14.5,4.330127018922193 Z" fill="blue" />
<path d="M14.999999999999998,3.464101615137754 L14.0,3.4641016151377517 L14.500000000000002,2.5980762113533156 L15.5,2.598076211353318 L14.999999999999998,3.464101615137754 Z" fill="red" />
<path d="M15.999999999999998,5.196152422706633 L15.0,5.19615242270663 L15.500000000000002,4.330127018922194 L16.5,4.330127018922196 L15.999999999999998,5.196152422706633 Z" fill="red" />
<path d="M16.5,6.06217782649107 L15.5,6.062177826491068 L16.0,5.196152422706631 L17.0,5.196152422706634 L16.5,6.06217782649107 Z" fill="red" />
<path d="M9.5,-7.794228634059949 L8.5,-7.794228634059948 L9.0,-8.660254037844387 L10.0,-8.660254037844387 L9.5,-7.794228634059949 Z" fill="blue" />
<path d="M9.5,-6.06217782649107 L9.0,-6.928203230275508 L10.0,-6.92820323027551 L10.5,-6.062177826491071 L9.5,-6.06217782649107 Z" fill="red" />
<path d="M10.0,-6.928203230275509 L9.0,-6.928203230275509 L9.5,-7.794228634059948 L10.5,-7.794228634059948 L10.0,-6.928203230275509 Z" fill="blue" />
<path d="M10.0,-5.196152422706631 L9.5,-6.0621778264910695 L10.5,-6.06217782649107 L11.0,-5.196152422706633 L10.0,-5.196152422706631 Z" fill="red" />
<path d="M10.5,-4.330127018922192 L10.0,-5.19615242270663 L11.0,-5.196152422706631 L11.5,-4.330127018922194 L10.5,-4.330127018922192 Z" fill="red" />
<path d="M10.999999999999998,-3.4641016151377544 L10.5,-4.3301270189221945 L11.500000000000002,-4.330127018922193 L12.0,-3.4641016151377526 L10.999999999999998,-3.4641016151377544 Z" fill="red" />
<path d="M12.5,-2.598076211353316 L12.0,-1.7320508075688767 L11.5,-2.598076211353316 L12.0,-3.4641016151377553 L12.5,-2.598076211353316 Z" fill="green" />
<path d="M12.999999999999998,-1.7320508075688776 L12.5,-0.866025403784441 L12.000000000000002,-1.7320508075688776 L12.5,-2.5980762113533142 L12.999999999999998,-1.7320508075688776 Z" fill="green" />
<path d="M13.499999999999998,-0.8660254037844384 L13.0,-1.7763568394002505e-15 L12.500000000000002,-0.8660254037844384 L13.0,-1.732050807568875 L13.499999999999998,-0.8660254037844384 Z" fill="green" />
<path d="M14.0,-3.3306690738754696e-16 L13.0,-0.0 L13.5,-0.8660254037844389 L14.5,-0.8660254037844393 L14.0,-3.3306690738754696e-16 Z" fill="blue" />
<path d="M14.499999999999998,0.8660254037844384 L14.0,1.732050807568875 L13.500000000000002,0.8660254037844384 L14.0,1.7763568394002505e-15 L14.499999999999998,0.8660254037844384 Z" fill="green" />
<path d="M14.999999999999998,1.7320508075688776 L14.5,2.5980762113533142 L14.000000000000002,1.7320508075688776 L14.5,0.866025403784441 L14.999999999999998,1.7320508075688776 Z" fill="green" />
<path d="M15.499999999999998,2.5980762113533147 L14.5,2.5980762113533125 L15.000000000000002,1.7320508075688763 L16.0,1.7320508075688785 L15.499999999999998,2.5980762113533147 Z" fill="red" />
<path d="M16.000000000000004,3.4641016151377544 L15.5,4.330127018922196 L14.999999999999998,3.4641016151377544 L15.5,2.5980762113533125 L16.000000000000004,3.4641016151377544 Z" fill="green" />
<path d="M16.5,4.330127018922194 L15.5,4.330127018922191 L16.0,3.464101615137755 L17.0,3.464101615137757 L16.5,4.330127018922194 Z" fill="red" />
<path d="M17.0,5.196152422706631 L16.0,5.1961524227066285 L16.5,4.330127018922192 L17.5,4.3301270189221945 L17.0,5.196152422706631 Z" fill="red" />
<path d="M10.500000000000002,-7.794228634059947 L9.5,-7.7942286340599445 L9.999999999999998,-8.660254037844386 L11.0,-8.660254037844389 L10.500000000000002,-7.794228634059947 Z" fill="blue" />
<path d="M10.999999999999998,-6.928203230275509 L10.5,-6.062177826491072 L10.000000000000002,-6.928203230275509 L10.5,-7.794228634059945 L10.999999999999998,-6.928203230275509 Z" fill="green" />
<path d="M11.5,-6.0621778264910695 L11.0,-5.196152422706632 L10.5,-6.0621778264910695 L11.0,-6.928203230275508 L11.5,-6.0621778264910695 Z" fill="green" />
<path d="M11.999999999999998,-5.196152422706632 L11.5,-4.330127018922196 L11.000000000000002,-5.196152422706632 L11.5,-6.062177826491067 L11.999999999999998,-5.196152422706632 Z" fill="green" />
<path d="M12.499999999999996,-4.330127018922193 L12.0,-3.464101615137759 L11.500000000000004,-4.330127018922193 L12.0,-5.196152422706627 L12.499999999999996,-4.330127018922193 Z" fill="green" />
<path d="M12.999999999999998,-3.4641016151377544 L12.5,-2.598076211353318 L12.000000000000002,-3.4641016151377544 L12.5,-4.330127018922191 L12.999999999999998,-3.4641016151377544 Z" fill="green" />
<path d="M12.999999999999996,-1.7320508075688772 L12.5,-2.5980762113533213 L13.500000000000004,-2.5980762113533156 L14.0,-1.7320508075688714 L12.999999999999996,-1.7320508075688772 Z" fill="red" />
<path d="M13.500000000000004,-2.5980762113533165 L12.5,-2.5980762113533107 L12.999999999999996,-3.464101615137755 L14.0,-3.4641016151377606 L13.500000000000004,-2.5980762113533165 Z" fill="blue" />
<path d="M13.499999999999998,-0.8660254037844387 L13.0,-1.7320508075688803 L14.000000000000002,-1.7320508075688772 L14.5,-0.8660254037844357 L13.499999999999998,-0.8660254037844387 Z" fill="red" />
<path d="M14.499999999999996,0.8660254037844389 L14.0,-5.329070518200751e-15 L15.000000000000004,3.3306690738754696e-16 L15.5,0.8660254037844446 L14.499999999999996,0.8660254037844389 Z" fill="blue" />
<path d="M15.0,1.7320508075688763 L14.5,0.8660254037844375 L15.5,0.8660254037844378 L16.0,1.7320508075688767 L15.0,1.7320508075688763 Z" fill="blue" />
<path d="M16.0,3.464101615137755 L15.5,2.598076211353316 L16.5,2.5980762113533165 L17.0,3.4641016151377553 L16.0,3.464101615137755 Z" fill="blue" />
<path d="M16.5,2.5980762113533156 L15.5,2.598076211353316 L16.0,1.7320508075688772 L17.0,1.7320508075688767 L16.5,2.5980762113533156 Z" fill="red" />
<path d="M17.5,4.330127018922193 L16.5,4.330127018922193 L17.0,3.464101615137754 L18.0,3.4641016151377535 L17.5,4.330127018922193 Z" fill="red" />
<path d="M10.999999999999998,-6.92820323027551 L10.5,-7.79422863405995 L11.500000000000002,-7.794228634059949 L12.0,-6.928203230275508 L10.999999999999998,-6.92820323027551 Z" fill="red" />
<path d="M11.499999999999998,-7.794228634059945 L10.5,-7.794228634059948 L11.000000000000002,-8.660254037844384 L12.0,-8.660254037844382 L11.499999999999998,-7.794228634059945 Z" fill="blue" />
<path d="M11.499999999999998,-6.06217782649107 L11.0,-6.9282032302755105 L12.000000000000002,-6.92820323027551 L12.5,-6.062177826491069 L11.499999999999998,-6.06217782649107 Z" fill="red" />
<path d="M11.999999999999998,-5.196152422706631 L11.5,-6.062177826491075 L12.500000000000002,-6.06217782649107 L13.0,-5.196152422706628 L11.999999999999998,-5.196152422706631 Z" fill="red" />
<path d="M12.499999999999998,-4.330127018922194 L12.0,-5.196152422706636 L13.000000000000002,-5.196152422706633 L13.5,-4.330127018922191 L12.499999999999998,-4.330127018922194 Z" fill="red" />
<path d="M12.999999999999998,-3.464101615137755 L12.5,-4.330127018922196 L13.500000000000002,-4.330127018922194 L14.0,-3.4641016151377517 L12.999999999999998,-3.464101615137755 Z" fill="red" />
<path d="M13.999999999999998,-1.732050807568878 L13.5,-2.5980762113533196 L14.500000000000002,-2.5980762113533165 L15.0,-1.732050807568875 L13.999999999999998,-1.732050807568878 Z" fill="red" />
<path d="M14.5,-2.5980762113533147 L13.5,-2.5980762113533142 L14.0,-3.464101615137753 L15.0,-3.4641016151377535 L14.5,-2.5980762113533147 Z" fill="blue" />
<path d="M14.499999999999998,-0.8660254037844387 L14.0,-1.7320508075688803 L15.000000000000002,-1.7320508075688772 L15.5,-0.8660254037844357 L14.499999999999998,-0.8660254037844387 Z" fill="red" />
<path d="M14.999999999999996,-3.3306690738754696e-16 L14.5,-0.8660254037844446 L15.500000000000004,-0.8660254037844389 L16.0,5.329070518200751e-15 L14.999999999999996,-3.3306690738754696e-16 Z" fill="red" />
<path d="M16.5,0.8660254037844375 L16.0,1.7320508075688767 L15.5,0.8660254037844375 L16.0,-1.7763568394002505e-15 L16.5,0.8660254037844375 Z" fill="green" />
<path d="M16.999999999999996,1.732050807568878 L16.0,1.7320508075688732 L16.500000000000004,0.8660254037844396 L17.5,0.8660254037844446 L16.999999999999996,1.732050807568878 Z" fill="red" />
<path d="M17.5,2.598076211353316 L17.0,3.4641016151377553 L16.5,2.598076211353316 L17.0,1.7320508075688767 L17.5,2.598076211353316 Z" fill="green" />
<path d="M17.999999999999996,3.464101615137755 L17.0,3.46410161513775 L17.500000000000004,2.5980762113533165 L18.5,2.5980762113533213 L17.999999999999996,3.464101615137755 Z" fill="red" />
<path d="M12.500000000000004,-7.794228634059946 L12.0,-6.928203230275503 L11.499999999999996,-7.794228634059946 L12.0,-8.660254037844389 L12.500000000000004,-7.794228634059946 Z" fill="green" />
<path d="M12.5,-6.062177826491069 L12.0,-6.928203230275507 L13.0,-6.928203230275508 L13.5,-6.06217782649107 L12.5,-6.062177826491069 Z" fill="red" />
<path d="M13.0,-6.928203230275508 L12.0,-6.92820323027551 L12.5,-7.794228634059947 L13.5,-7.794228634059946 L13.0,-6.928203230275508 Z" fill="blue" />
<path d="M13.000000000000002,-5.196152422706631 L12.5,-6.062177826491068 L13.499999999999998,-6.06217782649107 L14.0,-5.196152422706634 L13.000000000000002,-5.196152422706631 Z" fill="red" />
<path d="M13.500000000000002,-4.330127018922192 L13.0,-5.1961524227066285 L13.999999999999998,-5.196152422706631 L14.5,-4.3301270189221945 L13.500000000000002,-4.330127018922192 Z" fill="red" />
<path d="M14.0,-3.464101615137754 L13.5,-4.330127018922193 L14.5,-4.330127018922193 L15.0,-3.4641016151377535 L14.0,-3.464101615137754 Z" fill="red" />
<path d="M15.500000000000002,-2.598076211353315 L15.0,-1.7320508075688732 L14.499999999999998,-2.598076211353315 L15.0,-3.464101615137757 L15.500000000000002,-2.598076211353315 Z" fill="green" />
<path d="M16.0,-1.7320508075688767 L15.5,-0.8660254037844375 L15.0,-1.7320508075688767 L15.5,-2.598076211353316 L16.0,-1.7320508075688767 Z" fill="green" />
<path d="M16.5,-0.8660254037844375 L16.0,1.7763568394002505e-15 L15.5,-0.8660254037844375 L16.0,-1.7320508075688767 L16.5,-0.8660254037844375 Z" fill="green" />
<path d="M16.999999999999996,-3.3306690738754696e-16 L16.0,-5.329070518200751e-15 L16.500000000000004,-0.8660254037844389 L17.5,-0.8660254037844339 L16.999999999999996,-3.3306690738754696e-16 Z" fill="blue" />
<path d="M17.499999999999996,0.8660254037844389 L16.5,0.8660254037844339 L17.000000000000004,3.3306690738754696e-16 L18.0,5.329070518200751e-15 L17.499999999999996,0.8660254037844389 Z" fill="red" />
<path d="M18.000000000000004,1.7320508075688785 L17.5,2.598076211353323 L16.999999999999996,1.7320508075688785 L17.5,0.8660254037844339 L18.000000000000004,1.7320508075688785 Z" fill="green" />
<path d="M18.499999999999996,2.5980762113533156 L17.5,2.5980762113533107 L18.000000000000004,1.7320508075688772 L19.0,1.732050807568882 L18.499999999999996,2.5980762113533156 Z" fill="red" />
<path d="M12.500000000000004,-7.794228634059945 L12.0,-8.66025403784438 L12.999999999999996,-8.660254037844384 L13.5,-7.794228634059952 L12.500000000000004,-7.794228634059945 Z" fill="red" />
<path d="M14.0,-6.928203230275509 L13.5,-6.0621778264910695 L13.0,-6.928203230275509 L13.5,-7.794228634059948 L14.0,-6.928203230275509 Z" fill="green" />
<path d="M14.500000000000002,-6.06217782649107 L14.0,-5.1961524227066285 L13.499999999999998,-6.06217782649107 L14.0,-6.928203230275512 L14.500000000000002,-6.06217782649107 Z" fill="green" />
<path d="M14.5,-4.330127018922193 L14.0,-5.196152422706632 L15.0,-5.196152422706632 L15.5,-4.330127018922193 L14.5,-4.330127018922193 Z" fill="red" />
<path d="M15.0,-5.196152422706632 L14.0,-5.196152422706632 L14.5,-6.062177826491071 L15.5,-6.062177826491071 L15.0,-5.196152422706632 Z" fill="blue" />
<path d="M15.000000000000002,-3.464101615137755 L14.5,-4.330127018922191 L15.499999999999998,-4.330127018922194 L16.0,-3.464101615137757 L15.000000000000002,-3.464101615137755 Z" fill="red" />
<path d="M15.500000000000002,-2.5980762113533156 L15.0,-3.4641016151377517 L15.999999999999998,-3.464101615137754 L16.5,-2.598076211353318 L15.500000000000002,-2.5980762113533156 Z" fill="red" />
<path d="M16.0,-1.7320508075688772 L15.5,-2.598076211353316 L16.5,-2.5980762113533156 L17.0,-1.7320508075688767 L16.0,-1.7320508075688772 Z" fill="red" />
<path d="M16.500000000000004,-0.8660254037844396 L16.0,-1.7320508075688732 L16.999999999999996,-1.732050807568878 L17.5,-0.8660254037844446 L16.500000000000004,-0.8660254037844396 Z" fill="red" />
<path d="M18.500000000000004,0.8660254037844393 L18.0,1.7320508075688839 L17.499999999999996,0.8660254037844393 L18.0,-5.329070518200751e-15 L18.500000000000004,0.8660254037844393 Z" fill="green" />
<path d="M18.999999999999996,1.7320508075688763 L18.0,1.7320508075688714 L18.500000000000004,0.8660254037844378 L19.5,0.8660254037844428 L18.999999999999996,1.7320508075688763 Z" fill="red" />
<path d="M13.5,-7.794228634059949 L13.0,-8.660254037844387 L14.0,-8.660254037844387 L14.5,-7.794228634059948 L13.5,-7.794228634059949 Z" fill="red" />
<path d="M14.000000000000002,-6.92820323027551 L13.5,-7.794228634059946 L14.499999999999998,-7.794228634059949 L15.0,-6.928203230275512 L14.000000000000002,-6.92820323027551 Z" fill="red" />
<path d="M14.500000000000002,-6.06217782649107 L14.0,-6.928203230275507 L14.999999999999998,-6.92820323027551 L15.5,-6.062177826491073 L14.500000000000002,-6.06217782649107 Z" fill="red" />
<path d="M16.0,-5.196152422706632 L15.5,-4.330127018922193 L15.0,-5.196152422706632 L15.5,-6.062177826491071 L16.0,-5.196152422706632 Z" fill="green" />
<path d="M16.0,-3.464101615137755 L15.5,-4.330127018922191 L16.5,-4.330127018922194 L17.0,-3.464101615137757 L16.0,-3.464101615137755 Z" fill="red" />
<path d="M16.499999999999996,-4.330127018922193 L15.5,-4.330127018922198 L16.000000000000004,-5.196152422706632 L17.0,-5.196152422706627 L16.499999999999996,-4.330127018922193 Z" fill="blue" />
<path d="M16.5,-2.5980762113533165 L16.0,-3.4641016151377553 L17.0,-3.464101615137755 L17.5,-2.598076211353316 L16.5,-2.5980762113533165 Z" fill="red" />
<path d="M17.000000000000004,-1.732050807568879 L16.5,-2.5980762113533125 L17.499999999999996,-2.5980762113533173 L18.0,-1.7320508075688839 L17.000000000000004,-1.732050807568879 Z" fill="red" />
<path d="M17.500000000000004,-0.8660254037844396 L17.0,-1.7320508075688732 L17.999999999999996,-1.732050807568878 L18.5,-0.8660254037844446 L17.500000000000004,-0.8660254037844396 Z" fill="red" />
<path d="M18.000000000000004,-3.3306690738754696e-16 L17.5,-0.8660254037844339 L18.499999999999996,-0.8660254037844389 L19.0,-5.329070518200751e-15 L18.000000000000004,-3.3306690738754696e-16 Z" fill="red" />
<path d="M19.499999999999996,0.866025403784438 L18.5,0.8660254037844304 L19.000000000000004,-5.551115123125783e-16 L20.0,7.105427357601002e-15 L19.499999999999996,0.866025403784438 Z" fill="red" />
<path d="M14.500000000000002,-7.794228634059947 L14.0,-8.660254037844384 L14.999999999999998,-8.660254037844386 L15.5,-7.79422863405995 L14.500000000000002,-7.794228634059947 Z" fill="red" />
<path d="M15.000000000000002,-6.928203230275508 L14.5,-7.7942286340599445 L15.499999999999998,-7.794228634059947 L16.0,-6.9282032302755105 L15.000000000000002,-6.928203230275508 Z" fill="red" />
<path d="M15.5,-6.0621778264910695 L15.0,-6.928203230275509 L16.0,-6.928203230275509 L16.5,-6.0621778264910695 L15.5,-6.0621778264910695 Z" fill="red" />
<path d="M16.0,-5.196152422706631 L15.5,-6.062177826491068 L16.5,-6.06217782649107 L17.0,-5.196152422706634 L16.0,-5.196152422706631 Z" fill="red" />
<path d="M17.5,-4.330127018922193 L17.0,-3.4641016151377535 L16.5,-4.330127018922193 L17.0,-5.196152422706632 L17.5,-4.330127018922193 Z" fill="green" />
<path d="M18.0,-3.4641016151377535 L17.5,-2.5980762113533142 L17.0,-3.4641016151377535 L17.5,-4.330127018922193 L18.0,-3.4641016151377535 Z" fill="green" />
<path d="M18.500000000000004,-2.598076211353316 L18.0,-1.7320508075688714 L17.499999999999996,-2.598076211353316 L18.0,-3.4641016151377606 L18.500000000000004,-2.598076211353316 Z" fill="green" />
<path d="M19.000000000000004,-1.7320508075688767 L18.5,-0.8660254037844322 L17.999999999999996,-1.7320508075688767 L18.5,-2.5980762113533213 L19.000000000000004,-1.7320508075688767 Z" fill="green" />
<path d="M19.500000000000004,-0.8660254037844375 L19.0,7.105427357601002e-15 L18.499999999999996,-0.8660254037844375 L19.0,-1.732050807568882 L19.500000000000004,-0.8660254037844375 Z" fill="green" />
</svg>